<?xml version="1.0" ?><svg enable-background="new 0 0 32 32" version="1.1" viewBox="0 0 32 32" xml:space="preserve" xmlns="http://www.w3.org/2000/svg" xmlns:xlink="http://www.w3.org/1999/xlink"><g id="Full_copy"><g><path d="M32,31.293L32,31.293V19.46c0-6.34-3.384-9.29-7.896-9.29c-3.641,0-5.273,2.003-6.182,3.409v-2.924h-6.86    c0.091,1.937,0,20.637,0,20.637h6.86V19.767c0-0.615,0.044-1.232,0.226-1.672c0.495-1.233,1.624-2.509,3.518-2.509    c2.483,0,3.475,1.892,3.475,4.666v11.042H32z"/><path d="M3.792,7.838h0.043c2.391,0,3.882-1.586,3.882-3.567c-0.044-2.024-1.49-3.564-3.836-3.564S0,2.246,0,4.271    C0,6.252,1.489,7.838,3.792,7.838z"/><rect height="20.637" width="6.859" x="0.406" y="10.655"/></g></g></svg>